<svg width="400" height="190" viewBox="0 0 400 190" fill="none" xmlns="http://www.w3.org/2000/svg">
  <style>
    .title { font: 700 18px 'Segoe UI', Helvetica, Arial, sans-serif; fill: #2f80ed; }
    .metric { font: 700 24px 'Segoe UI', Helvetica, Arial, sans-serif; fill: #24292f; }
    .label { font: 500 11px 'Segoe UI', Helvetica, Arial, sans-serif; fill: #57606a; }
    .small { font: 600 12px 'Segoe UI', Helvetica, Arial, sans-serif; fill: #24292f; }
    .value { font: 700 12px 'Segoe UI', Helvetica, Arial, sans-serif; fill: #2f80ed; }
  </style>

  <text x="22" y="32" class="title">3b1b-sh's GitHub Stats</text>

  <text x="54" y="76" text-anchor="middle" class="metric">12</text>
  <text x="54" y="96" text-anchor="middle" class="label">Repositories</text>

  <text x="162" y="76" text-anchor="middle" class="metric">31</text>
  <text x="162" y="96" text-anchor="middle" class="label">Followers</text>

  <text x="292" y="76" text-anchor="middle" class="metric">189</text>
  <text x="292" y="96" text-anchor="middle" class="label">Contributions</text>

  <line x1="108" y1="55" x2="108" y2="102" stroke="#eaeef2"/>
  <line x1="222" y1="55" x2="222" y2="102" stroke="#eaeef2"/>

  <circle cx="28" cy="130" r="4" fill="#2f80ed"/>
  <text x="42" y="134" class="small">Current streak</text>
  <text x="198" y="134" text-anchor="end" class="value">0</text>

  <circle cx="228" cy="130" r="4" fill="#f97316"/>
  <text x="242" y="134" class="small">Longest streak</text>
  <text x="370" y="134" text-anchor="end" class="value">4</text>

  <rect x="24" y="160" width="348" height="7" rx="3.5" fill="#eaeef2"/>
  <rect x="24" y="160" width="118" height="7" rx="3.5" fill="#2f80ed"/>
  <rect x="142" y="160" width="64" height="7" fill="#8b5cf6"/>
  <rect x="206" y="160" width="72" height="7" fill="#22c55e"/>
  <rect x="278" y="160" width="58" height="7" fill="#f97316"/>
  <rect x="336" y="160" width="36" height="7" rx="3.5" fill="#f6c915"/>
</svg>
