<svg width="400" height="190" viewBox="0 0 400 190" fill="none" xmlns="http://www.w3.org/2000/svg">
  <style>
    .title { font: 700 18px 'Segoe UI', Helvetica, Arial, sans-serif; fill: #2f80ed; }
    .metric { font: 700 19px 'Segoe UI', Helvetica, Arial, sans-serif; fill: #24292f; }
    .label { font: 500 11px 'Segoe UI', Helvetica, Arial, sans-serif; fill: #57606a; }
    .rank { font: 700 25px 'Segoe UI', Helvetica, Arial, sans-serif; fill: #24292f; }
    .muted { font: 500 10px 'Segoe UI', Helvetica, Arial, sans-serif; fill: #8c959f; }
  </style>

  <text x="22" y="32" class="title">3b1b-sh's GitHub Stats</text>

  <circle cx="78" cy="104" r="43" fill="none" stroke="#eaeef2" stroke-width="10"/>
  <circle cx="78" cy="104" r="43" fill="none" stroke="#2f80ed" stroke-width="10" pathLength="100" stroke-dasharray="72 28" stroke-linecap="round" transform="rotate(-90 78 104)"/>
  <text x="78" y="104" text-anchor="middle" class="rank">B</text>
  <text x="78" y="122" text-anchor="middle" class="muted">profile</text>

  <text x="178" y="75" text-anchor="middle" class="metric">12</text>
  <text x="178" y="94" text-anchor="middle" class="label">Repositories</text>

  <text x="286" y="75" text-anchor="middle" class="metric">60</text>
  <text x="286" y="94" text-anchor="middle" class="label">Total Stars</text>

  <text x="178" y="134" text-anchor="middle" class="metric">31</text>
  <text x="178" y="153" text-anchor="middle" class="label">Followers</text>

  <text x="286" y="134" text-anchor="middle" class="metric">189</text>
  <text x="286" y="153" text-anchor="middle" class="label">Contributions</text>

  <line x1="232" y1="58" x2="232" y2="154" stroke="#eaeef2"/>
  <line x1="148" y1="105" x2="356" y2="105" stroke="#eaeef2"/>

  <rect x="24" y="170" width="348" height="6" rx="3" fill="#eaeef2"/>
  <rect x="24" y="170" width="126" height="6" rx="3" fill="#2f80ed"/>
  <rect x="150" y="170" width="76" height="6" fill="#8b5cf6"/>
  <rect x="226" y="170" width="82" height="6" fill="#22c55e"/>
  <rect x="308" y="170" width="72" height="6" rx="3" fill="#f97316"/>
</svg>
