<svg width="430" height="180" viewBox="0 0 430 180" fill="none" xmlns="http://www.w3.org/2000/svg">
  <rect x="0.5" y="0.5" width="429" height="179" rx="10" fill="#ffffff" stroke="#d0d7de"/>
  <text x="24" y="33" font-family="'Segoe UI', 'Helvetica Neue', Arial, sans-serif" font-size="16" font-weight="700" fill="#4f46e5">GitHub Overview</text>
  <text x="406" y="33" text-anchor="end" font-family="'Segoe UI', 'Helvetica Neue', Arial, sans-serif" font-size="12" font-weight="600" fill="#8c959f">@3b1b-sh</text>
  <g transform="translate(28 64)">
    <path transform="scale(1.15)" d="M8 .25a.75.75 0 0 1 .673.418l1.882 3.815 4.21.612a.75.75 0 0 1 .416 1.279l-3.046 2.97.719 4.192a.75.75 0 0 1-1.088.791L8 12.347l-3.766 1.98a.75.75 0 0 1-1.088-.79l.72-4.194L.818 6.374a.75.75 0 0 1 .416-1.28l4.21-.611L7.327.668A.75.75 0 0 1 8 .25Z" fill="#4f46e5"/>
    <text x="30" y="16" font-family="'Segoe UI', 'Helvetica Neue', Arial, sans-serif" font-size="22" font-weight="800" fill="#1f2328">65</text>
    <text x="30" y="34" font-family="'Segoe UI', 'Helvetica Neue', Arial, sans-serif" font-size="11" font-weight="500" fill="#57606a">Total Stars</text>
  </g>
  <g transform="translate(230 64)">
    <path transform="scale(1.15)" d="M10.561 8.073a6 6 0 0 1 3.432 5.142.75.75 0 1 1-1.498.07 4.5 4.5 0 0 0-8.99 0 .75.75 0 0 1-1.498-.07 6 6 0 0 1 3.431-5.142 4 4 0 1 1 5.123 0ZM8 7a2.5 2.5 0 1 0 0-5 2.5 2.5 0 0 0 0 5Z" fill="#0891b2"/>
    <text x="30" y="16" font-family="'Segoe UI', 'Helvetica Neue', Arial, sans-serif" font-size="22" font-weight="800" fill="#1f2328">33</text>
    <text x="30" y="34" font-family="'Segoe UI', 'Helvetica Neue', Arial, sans-serif" font-size="11" font-weight="500" fill="#57606a">Followers</text>
  </g>
  <g transform="translate(28 118)">
    <path transform="scale(1.15)" d="M2 2.5A2.5 2.5 0 0 1 4.5 0h8.75a.75.75 0 0 1 .75.75v12.5a.75.75 0 0 1-.75.75h-2.5a.75.75 0 0 1 0-1.5h1.75v-2h-8a1 1 0 0 0-.714 1.7.75.75 0 1 1-1.072 1.05A2.495 2.495 0 0 1 2 11.5Zm10.5-1h-8a1 1 0 0 0-1 1v6.708A2.486 2.486 0 0 1 4.5 9h8ZM5 12.25a.25.25 0 0 1 .25-.25h3.5a.25.25 0 0 1 .25.25v3.25a.25.25 0 0 1-.4.2l-1.45-1.087a.25.25 0 0 0-.3 0L5.4 15.7a.25.25 0 0 1-.4-.2Z" fill="#0891b2"/>
    <text x="30" y="16" font-family="'Segoe UI', 'Helvetica Neue', Arial, sans-serif" font-size="22" font-weight="800" fill="#1f2328">12</text>
    <text x="30" y="34" font-family="'Segoe UI', 'Helvetica Neue', Arial, sans-serif" font-size="11" font-weight="500" fill="#57606a">Public Repos</text>
  </g>
  <g transform="translate(230 118)">
    <path transform="scale(1.15)" d="M1.5 1.75V13.5h13.75a.75.75 0 0 1 0 1.5H.75a.75.75 0 0 1-.75-.75V1.75a.75.75 0 0 1 1.5 0Zm14.28 2.53-5.25 5.25a.75.75 0 0 1-1.06 0L7 7.06 4.28 9.78a.751.751 0 0 1-1.042-.018.751.751 0 0 1-.018-1.042l3.25-3.25a.75.75 0 0 1 1.06 0L10 7.94l4.72-4.72a.751.751 0 0 1 1.042.018.751.751 0 0 1 .018 1.042Z" fill="#4f46e5"/>
    <text x="30" y="16" font-family="'Segoe UI', 'Helvetica Neue', Arial, sans-serif" font-size="22" font-weight="800" fill="#1f2328">231</text>
    <text x="30" y="34" font-family="'Segoe UI', 'Helvetica Neue', Arial, sans-serif" font-size="11" font-weight="500" fill="#57606a">Contributions · since 2020</text>
  </g>
</svg>
