<svg width="320" height="190" viewBox="0 0 320 190" fill="none" xmlns="http://www.w3.org/2000/svg">
  <style>
    .title { font: 700 18px 'Segoe UI', Helvetica, Arial, sans-serif; fill: #2f80ed; }
    .label { font: 500 13px 'Segoe UI', Helvetica, Arial, sans-serif; fill: #24292f; }
    .value { font: 500 12px 'Segoe UI', Helvetica, Arial, sans-serif; fill: #57606a; }
  </style>
  <text x="20" y="32" class="title">Top Languages</text>
  <rect x="20" y="48" width="280" height="10" rx="5" fill="#eaeef2"/>
  <rect x="20" y="48" width="102" height="10" rx="5" fill="#3572A5"/>
  <rect x="122" y="48" width="51" height="10" fill="#3178C6"/>
  <rect x="173" y="48" width="51" height="10" fill="#DA5B0B"/>
  <rect x="224" y="48" width="25" height="10" fill="#f1e05a"/>
  <rect x="249" y="48" width="25" height="10" fill="#e34c26"/>
  <rect x="274" y="48" width="26" height="10" rx="5" fill="#555555"/>

  <circle cx="24" cy="84" r="4" fill="#3572A5"/>
  <text x="38" y="88" class="label">Python</text>
  <text x="296" y="88" class="value" text-anchor="end">4 repos</text>

  <circle cx="24" cy="110" r="4" fill="#3178C6"/>
  <text x="38" y="114" class="label">TypeScript</text>
  <text x="296" y="114" class="value" text-anchor="end">2 repos</text>

  <circle cx="24" cy="136" r="4" fill="#DA5B0B"/>
  <text x="38" y="140" class="label">Jupyter Notebook</text>
  <text x="296" y="140" class="value" text-anchor="end">2 repos</text>

  <circle cx="24" cy="162" r="4" fill="#f1e05a"/>
  <text x="38" y="166" class="label">JavaScript</text>
  <text x="296" y="166" class="value" text-anchor="end">1 repo</text>

  <circle cx="168" cy="162" r="4" fill="#e34c26"/>
  <text x="182" y="166" class="label">HTML / C</text>
  <text x="296" y="166" class="value" text-anchor="end">1 each</text>
</svg>
