<svg width="880" height="56" viewBox="0 0 880 56" fill="none" xmlns="http://www.w3.org/2000/svg" role="img" aria-label="Year progress: 50.24%">
  <defs>
    <linearGradient id="yp" x1="0" y1="0" x2="1" y2="0">
      <stop offset="0" stop-color="#818cf8"/>
      <stop offset="1" stop-color="#22d3ee"/>
    </linearGradient>
    <clipPath id="ypc"><rect x="96" y="28" width="690" height="10" rx="5"/></clipPath>
  </defs>
  <text x="24" y="38" font-family="'Segoe UI', 'Helvetica Neue', Arial, sans-serif" font-size="20" font-weight="800" fill="#e6edf3">2026</text>
  <text x="96" y="18" font-family="'Segoe UI', 'Helvetica Neue', Arial, sans-serif" font-size="10" font-weight="700" letter-spacing="3" fill="#6e7681">YEAR PROGRESS</text>
  <rect x="96" y="28" width="690" height="10" rx="5" fill="#21262d"/>
  <g clip-path="url(#ypc)">
    <rect x="96" y="28" width="346.7" height="10" fill="url(#yp)"/>
  </g>
  <line x1="153.5" y1="27" x2="153.5" y2="39" stroke="#0d1117" stroke-width="2"/>
  <line x1="211.0" y1="27" x2="211.0" y2="39" stroke="#0d1117" stroke-width="2"/>
  <line x1="268.5" y1="27" x2="268.5" y2="39" stroke="#0d1117" stroke-width="2"/>
  <line x1="326.0" y1="27" x2="326.0" y2="39" stroke="#0d1117" stroke-width="2"/>
  <line x1="383.5" y1="27" x2="383.5" y2="39" stroke="#0d1117" stroke-width="2"/>
  <line x1="441.0" y1="27" x2="441.0" y2="39" stroke="#0d1117" stroke-width="2"/>
  <line x1="498.5" y1="27" x2="498.5" y2="39" stroke="#0d1117" stroke-width="2"/>
  <line x1="556.0" y1="27" x2="556.0" y2="39" stroke="#0d1117" stroke-width="2"/>
  <line x1="613.5" y1="27" x2="613.5" y2="39" stroke="#0d1117" stroke-width="2"/>
  <line x1="671.0" y1="27" x2="671.0" y2="39" stroke="#0d1117" stroke-width="2"/>
  <line x1="728.5" y1="27" x2="728.5" y2="39" stroke="#0d1117" stroke-width="2"/>
  <circle cx="442.7" cy="33" r="5" fill="#22d3ee" stroke="#0d1117" stroke-width="2">
    <animate attributeName="r" values="4.5;6;4.5" dur="2s" repeatCount="indefinite"/>
  </circle>
  <text x="856" y="38" text-anchor="end" font-family="'Segoe UI', 'Helvetica Neue', Arial, sans-serif" font-size="17" font-weight="700" fill="#818cf8">50.24%</text>
</svg>
